<?xml version="1.0" encoding="utf-8"?>
<!-- Generator: Adobe Illustrator 19.2.1, SVG Export Plug-In . SVG Version: 6.00 Build 0)  -->
<svg version="1.1" id="Layer_1" xmlns="http://www.w3.org/2000/svg" xmlns:xlink="http://www.w3.org/1999/xlink" x="0px" y="0px"
	 width="110px" height="73.7px" viewBox="0 0 110 73.7" style="enable-background:new 0 0 110 73.7;" xml:space="preserve">
<style type="text/css">
	.st0{fill:#FFFFFF;}
</style>
<polygon points="41,2 108,33 69.5,71.7 2,41 "/>
<g>
	<path class="st0 ahoia-logo__letter ahoia-logo__letter--afirst" d="M67.5,30.6c0-0.2,0.2-0.4,0.4-0.4h2.3c0.2,0,0.4,0.2,0.4,0.4v13c0,0.2-0.2,0.4-0.4,0.4h-2.3
		c-0.2,0-0.4-0.2-0.4-0.4V30.6z"/>
</g>
<g>
	<path class="st0 ahoia-logo__letter ahoia-logo__letter--h ahoia-logo__letter--hide" d="M58.3,30.1c3.9,0,7,3.1,7,7.1c0,3.9-3.1,7-7,7c-3.9,0-7-3.1-7-7C51.2,33.2,54.3,30.1,58.3,30.1z M58.3,41
		c2.2,0,3.9-1.8,3.9-3.9c0-2.2-1.8-3.9-3.9-3.9c-2.1,0-3.9,1.8-3.9,3.9C54.4,39.3,56.1,41,58.3,41z"/>
</g>
<g>
	<path class="st0 ahoia-logo__letter ahoia-logo__letter--o ahoia-logo__letter--hide" d="M37.5,30.6c0-0.2,0.2-0.4,0.4-0.4h2.3c0.2,0,0.4,0.2,0.4,0.4v4.9h5.6v-4.9c0-0.2,0.2-0.4,0.4-0.4h2.3
		c0.2,0,0.4,0.2,0.4,0.4v13c0,0.2-0.2,0.4-0.4,0.4h-2.3c-0.2,0-0.4-0.2-0.4-0.4v-5.1h-5.6v5.1c0,0.2-0.2,0.4-0.4,0.4h-2.3
		c-0.2,0-0.4-0.2-0.4-0.4V30.6z"/>
</g>
<g>
	<path class="st0 ahoia-logo__letter ahoia-logo__letter--i ahoia-logo__letter--hide" d="M22.2,43.5l6.1-13.2c0.1-0.1,0.2-0.2,0.3-0.2h0.2c0.1,0,0.3,0.1,0.3,0.2l6.1,13.2c0.1,0.3,0,0.5-0.3,0.5h-2.2
		c-0.4,0-0.5-0.1-0.7-0.5l-0.7-1.5h-5.3l-0.7,1.6c-0.1,0.2-0.3,0.5-0.7,0.5h-2.2C22.3,44,22.1,43.7,22.2,43.5z M30.3,39.3L28.8,36h0
		l-1.5,3.2H30.3z"/>
</g>
<g>
	<path class="st0 ahoia-logo__letter ahoia-logo__letter--alast" d="M72.6,43.5l6.1-13.2c0.1-0.1,0.2-0.2,0.3-0.2h0.2c0.1,0,0.3,0.1,0.3,0.2l6.1,13.2c0.1,0.3,0,0.5-0.3,0.5h-2.2
		c-0.4,0-0.5-0.1-0.7-0.5l-0.7-1.5h-5.3l-0.7,1.6c-0.1,0.2-0.3,0.5-0.7,0.5H73C72.7,44,72.5,43.7,72.6,43.5z M80.7,39.3L79.2,36h0
		l-1.5,3.2H80.7z"/>
</g>
</svg>
